<svg width="28" height="28" viewBox="0 0 28 28" fill="none" xmlns="http://www.w3.org/2000/svg">
<g clip-path="url(#clip0_71_175)">
<path d="M13.7515 7.79016C9.47979 7.79016 5.06104 8.99066 5.06104 10.9988C5.06104 13.0069 9.47979 14.2074 13.7515 14.2074C18.0233 14.2074 22.442 13.0069 22.442 10.9988C22.442 10.8946 22.4291 10.7909 22.4035 10.6899C22.3965 10.661 22.3887 10.6313 22.379 10.6024C21.8567 8.97054 18.228 7.79016 13.7515 7.79016Z" fill="url(#paint0_radial_71_175)"/>
<path d="M27.5712 18.8878C27.5712 23.2628 21.5337 26.6875 13.8337 26.6875C6.13369 26.6875 0.0961914 23.2619 0.0961914 18.8878" fill="url(#paint1_radial_71_175)"/>
<path d="M13.8346 25.935C21.4753 25.935 27.6693 22.6941 27.6693 18.6962C27.6693 14.6982 21.4753 11.4573 13.8346 11.4573C6.19397 11.4573 0 14.6982 0 18.6962C0 22.6941 6.19397 25.935 13.8346 25.935Z" fill="url(#paint2_radial_71_175)"/>
<path d="M13.8987 23.8884C18.9482 23.8884 23.0416 22.4291 23.0416 20.629C23.0416 18.8289 18.9482 17.3696 13.8987 17.3696C8.84926 17.3696 4.75586 18.8289 4.75586 20.629C4.75586 22.4291 8.84926 23.8884 13.8987 23.8884Z" fill="url(#paint3_radial_71_175)"/>
<path opacity="0.81" d="M13.6431 21.2311C13.6431 22.9014 17.3128 24.2761 22.0431 24.4686C25.4634 23.1464 27.6746 21.0561 27.6746 18.6979C27.6746 18.5842 27.6684 18.4722 27.6579 18.3593C26.1746 18.096 24.6705 17.9665 23.1639 17.9726C17.9034 17.9708 13.6431 19.4312 13.6431 21.2311Z" fill="url(#paint4_radial_71_175)"/>
<path d="M28.0001 13.79C28.01 13.4542 27.9475 13.1201 27.8168 12.8105C27.6862 12.501 27.4905 12.2231 27.243 11.9959C26.9955 11.7686 26.702 11.5973 26.3824 11.4935C26.0628 11.3897 25.7247 11.3558 25.3909 11.3943C23.0879 11.3943 22.667 13.5214 22.667 14.7866C22.667 14.7866 22.6845 14.742 22.6845 14.7534C22.6845 14.833 22.7161 14.9093 22.7724 14.9656C22.8287 15.0219 22.905 15.0535 22.9846 15.0535C23.0642 15.0535 23.1406 15.0219 23.1968 14.9656C23.2531 14.9093 23.2847 14.833 23.2847 14.7534C23.208 14.5303 23.1864 14.2919 23.2217 14.0587C23.3858 13.5958 23.6773 13.1887 24.0626 12.8842C24.4479 12.5797 24.9114 12.3902 25.3996 12.3375C26.5721 12.4128 27.0192 13.1355 26.986 13.8434C26.9204 15.2434 25.586 16.2628 21.5015 17.1771L20.1304 19.3279C21.7054 19.3279 21.897 18.7084 22.6302 18.1983C23.5997 17.5271 28.0001 16.7475 28.0001 13.79Z" fill="url(#paint5_radial_71_175)"/>
<path d="M5.33838 12.3148C6.00863 10.6986 9.48413 9.46576 13.6824 9.46576C17.8456 9.46576 21.2993 10.6776 22.0115 12.2736C20.6334 13.538 17.4081 14.4244 13.6491 14.4244C9.93213 14.4244 6.74188 13.5564 5.33838 12.3148Z" fill="url(#paint6_radial_71_175)"/>
<path d="M13.7482 14.238C9.32246 14.238 4.85559 13.0314 4.46884 10.7258C4.38387 11.2665 4.33913 11.8129 4.33496 12.3603C4.33496 18.0145 8.50346 22.5978 13.645 22.5978C18.7865 22.5978 22.955 18.0136 22.955 12.3603C22.955 12.0103 22.9278 11.6078 22.8867 11.207C21.9995 13.1994 17.8555 14.238 13.7482 14.238Z" fill="url(#paint7_radial_71_175)"/>
<path d="M13.7523 14.8514C9.12184 14.8514 4.43359 13.5345 4.43359 11.0154C4.43359 8.49626 9.12184 7.17938 13.7523 7.17938C18.6453 7.17938 22.3518 8.48051 22.9757 10.4169C22.9888 10.4554 23.0011 10.5 23.0133 10.5455C23.0517 10.6989 23.071 10.8564 23.0711 11.0145C23.0702 13.5345 18.3828 14.8514 13.7523 14.8514ZM13.7523 7.80676C9.46484 7.80676 5.03734 9.00726 5.03734 11.0154C5.03734 13.0235 9.46834 14.224 13.7523 14.224C18.0363 14.224 22.4673 13.0235 22.4673 11.0154C22.4674 10.9112 22.4544 10.8075 22.4288 10.7065C22.4218 10.6776 22.414 10.6479 22.4043 10.619C21.8793 8.98888 18.2402 7.80676 13.7523 7.80676Z" fill="url(#paint8_radial_71_175)"/>
<path opacity="0.43" d="M12.203 1.37552C11.641 1.42913 11.111 1.66161 10.691 2.03877C10.37 2.3738 10.1657 2.80339 10.1082 3.26377C10.0131 4.20766 10.1407 5.16071 10.481 6.04627C10.8808 7.01874 11.1321 8.04581 11.2265 9.09302C11.2736 9.63392 11.2114 10.1788 11.0436 10.6951C10.9507 10.9687 10.806 11.2218 10.6175 11.4406C10.417 11.6835 10.1388 11.8498 9.82997 11.9114C10.055 11.7726 10.2251 11.5602 10.3112 11.3103C10.3959 11.0866 10.4398 10.8495 10.4407 10.6103C10.448 10.1278 10.387 9.64678 10.2596 9.1814C9.98961 8.2087 9.66028 7.25345 9.27347 6.32102C8.87213 5.28846 8.82748 4.15138 9.1466 3.09052C9.34292 2.49738 9.74236 1.99259 10.2745 1.66515C10.8598 1.33471 11.5464 1.23159 12.203 1.37552ZM13.6607 1.66515C13.1292 1.99284 12.7304 2.49761 12.5346 3.09052C12.2151 4.15133 12.2598 5.28853 12.6615 6.32102C13.0482 7.25329 13.3778 8.20822 13.6485 9.18052C13.7762 9.64584 13.8372 10.1269 13.8296 10.6094C13.8287 10.8486 13.7848 11.0857 13.7001 11.3094C13.6136 11.5592 13.4436 11.7715 13.2188 11.9105C13.5277 11.8489 13.8058 11.6826 14.0063 11.4398C14.1947 11.2208 14.3394 10.9677 14.4325 10.6943C14.6002 10.1779 14.6624 9.63305 14.6153 9.09215C14.5209 8.04495 14.2696 7.01789 13.8698 6.0454C13.5296 5.15983 13.4019 4.20679 13.4971 3.2629C13.5548 2.80259 13.7591 2.37307 14.0798 2.0379C14.4997 1.66047 15.0298 1.42796 15.5918 1.37465C14.9347 1.23077 14.2476 1.33387 13.6616 1.66427L13.6607 1.66515ZM17.047 1.66515C16.5166 1.99309 16.1188 2.49747 15.9235 3.08965C15.604 4.15046 15.6487 5.28766 16.0503 6.32015C16.4374 7.25268 16.7673 8.2079 17.0382 9.18052C17.1659 9.64584 17.2269 10.1269 17.2193 10.6094C17.2184 10.8486 17.1745 11.0857 17.0898 11.3094C17.0034 11.5592 16.8334 11.7715 16.6086 11.9105C16.9174 11.8489 17.1956 11.6826 17.3961 11.4398C17.5845 11.2208 17.7291 10.9677 17.8222 10.6943C17.99 10.1779 18.0522 9.63305 18.0051 9.09215C17.9107 8.04495 17.6594 7.01789 17.2596 6.0454C16.9194 5.15983 16.7917 4.20679 16.8868 3.2629C16.9445 2.80259 17.1489 2.37307 17.4696 2.0379C17.8895 1.66047 18.4195 1.42796 18.9816 1.37465C18.3233 1.22996 17.6348 1.33308 17.0478 1.66427L17.047 1.66515Z" fill="url(#paint9_radial_71_175)"/>
</g>
<defs>
<radialGradient id="paint0_radial_71_175" cx="0" cy="0" r="1" gradientUnits="userSpaceOnUse" gradientTransform="translate(3.10226 2.83607) scale(12.7488 5.14576)">
<stop stop-color="#6F6B63"/>
<stop offset="0.229" stop-color="#726E66"/>
<stop offset="0.397" stop-color="#7B776F"/>
<stop offset="0.547" stop-color="#8B877F"/>
<stop offset="0.685" stop-color="#A29D95"/>
<stop offset="0.816" stop-color="#BFBAB1"/>
<stop offset="0.939" stop-color="#E2DDD4"/>
<stop offset="1" stop-color="#F7F1E8"/>
</radialGradient>
<radialGradient id="paint1_radial_71_175" cx="0" cy="0" r="1" gradientUnits="userSpaceOnUse" gradientTransform="translate(3.18951 4.88334) rotate(1.66028) scale(16.1133 6.95556)">
<stop stop-color="#F7F1E8"/>
<stop offset="0.196" stop-color="#F4EEE5"/>
<stop offset="0.366" stop-color="#E9E3DA"/>
<stop offset="0.526" stop-color="#D7D2C9"/>
<stop offset="0.68" stop-color="#BEB9B0"/>
<stop offset="0.83" stop-color="#9E9991"/>
<stop offset="0.975" stop-color="#77736B"/>
<stop offset="1" stop-color="#6F6B63"/>
</radialGradient>
<radialGradient id="paint2_radial_71_175" cx="0" cy="0" r="1" gradientUnits="userSpaceOnUse" gradientTransform="translate(7.48449 10.069) rotate(-31.6009) scale(16.6883 5.49414)">
<stop stop-color="#DED9CD"/>
<stop offset="0.514" stop-color="#C0BCB1"/>
<stop offset="1" stop-color="#A8A49A"/>
</radialGradient>
<radialGradient id="paint3_radial_71_175" cx="0" cy="0" r="1" gradientUnits="userSpaceOnUse" gradientTransform="translate(8.08605 18.7307) rotate(-1.66996) scale(7.84335 3.22565)">
<stop offset="0.43" stop-color="#474640"/>
<stop offset="0.565" stop-color="#4B4A44" stop-opacity="0.765"/>
<stop offset="0.698" stop-color="#555550" stop-opacity="0.529"/>
<stop offset="0.83" stop-color="#676764" stop-opacity="0.298"/>
<stop offset="0.961" stop-color="#80807F" stop-opacity="0.067"/>
<stop offset="1" stop-color="#898989" stop-opacity="0"/>
</radialGradient>
<radialGradient id="paint4_radial_71_175" cx="0" cy="0" r="1" gradientUnits="userSpaceOnUse" gradientTransform="translate(5.42338 4.42577) rotate(7.03342) scale(8.72636 3.27519)">
<stop offset="0.198" stop-color="#474640"/>
<stop offset="0.402" stop-color="#4A4944" stop-opacity="0.745"/>
<stop offset="0.583" stop-color="#54534E" stop-opacity="0.522"/>
<stop offset="0.754" stop-color="#646460" stop-opacity="0.306"/>
<stop offset="0.919" stop-color="#7B7B7A" stop-opacity="0.102"/>
<stop offset="1" stop-color="#898989" stop-opacity="0"/>
</radialGradient>
<radialGradient id="paint5_radial_71_175" cx="0" cy="0" r="1" gradientUnits="userSpaceOnUse" gradientTransform="translate(19.3317 9.19158) scale(12.5115 8.62447)">
<stop offset="0.131" stop-color="#5E5B54"/>
<stop offset="0.233" stop-color="#625F58"/>
<stop offset="0.334" stop-color="#6E6A63"/>
<stop offset="0.434" stop-color="#827E76"/>
<stop offset="0.534" stop-color="#9E9991"/>
<stop offset="0.633" stop-color="#C1BCB3"/>
<stop offset="0.69" stop-color="#D9D3CA"/>
<stop offset="0.785" stop-color="#E8E3DC"/>
<stop offset="0.909" stop-color="#F7F2EE"/>
<stop offset="1" stop-color="#FCF8F4"/>
</radialGradient>
<radialGradient id="paint6_radial_71_175" cx="0" cy="0" r="1" gradientUnits="userSpaceOnUse" gradientTransform="translate(1.88365 3.20084) rotate(-4.21418) scale(10.349 4.26576)">
<stop stop-color="#634422"/>
<stop offset="0.107" stop-color="#5D4020"/>
<stop offset="0.254" stop-color="#4B331A"/>
<stop offset="0.424" stop-color="#2E1F10"/>
<stop offset="0.593" stop-color="#0A0603"/>
<stop offset="0.713" stop-color="#26180B"/>
<stop offset="0.969" stop-color="#6C4620"/>
<stop offset="1" stop-color="#754C23"/>
</radialGradient>
<radialGradient id="paint7_radial_71_175" cx="0" cy="0" r="1" gradientUnits="userSpaceOnUse" gradientTransform="translate(7.57822 17.5997) scale(11.8021 12.2756)">
<stop offset="0.131" stop-color="#6A665E"/>
<stop offset="0.226" stop-color="#757169"/>
<stop offset="0.393" stop-color="#938F86"/>
<stop offset="0.613" stop-color="#C4BEB5"/>
<stop offset="0.7" stop-color="#D9D3CA"/>
<stop offset="0.812" stop-color="#E2DED5"/>
<stop offset="1" stop-color="#FAF8F2"/>
</radialGradient>
<radialGradient id="paint8_radial_71_175" cx="0" cy="0" r="1" gradientUnits="userSpaceOnUse" gradientTransform="translate(3.95175 2.88559) scale(9.31413 3.74696)">
<stop offset="0.636" stop-color="#6F6B63"/>
<stop offset="0.689" stop-color="#747068"/>
<stop offset="0.754" stop-color="#848077"/>
<stop offset="0.827" stop-color="#9D9990"/>
<stop offset="0.905" stop-color="#C1BCB3"/>
<stop offset="0.986" stop-color="#EEE9E0"/>
<stop offset="1" stop-color="#F7F1E8"/>
</radialGradient>
<radialGradient id="paint9_radial_71_175" cx="0" cy="0" r="1" gradientUnits="userSpaceOnUse" gradientTransform="translate(28.4944 -17.2788) rotate(-90) scale(10.1762 30.3575)">
<stop stop-color="#424242"/>
<stop offset="0.681" stop-color="#BDBDBD" stop-opacity="0.863"/>
<stop offset="1" stop-color="#F2F2F2" stop-opacity="0.8"/>
</radialGradient>
<clipPath id="clip0_71_175">
<rect width="28" height="25.375" fill="white" transform="translate(0 1.3125)"/>
</clipPath>
</defs>
</svg>
