<svg width="24" height="24" viewBox="0 0 24 24" fill="none" xmlns="http://www.w3.org/2000/svg">
<g clip-path="url(#clip0_71_189)">
<path d="M11.4638 24L11.7318 18.8605C11.7357 18.776 11.7206 18.6917 11.6876 18.6138C11.6546 18.5359 11.6045 18.4664 11.5411 18.4104C11.4776 18.3544 11.4025 18.3133 11.3211 18.2902C11.2397 18.2671 11.1541 18.2626 11.0707 18.2769L5.95511 19.1762L6.64593 17.2705C6.67396 17.1946 6.67754 17.1119 6.65618 17.034C6.63482 16.956 6.58958 16.8867 6.52682 16.8357L0.922852 12.2978L2.18538 11.7082C2.27065 11.6679 2.33828 11.5979 2.37556 11.5112C2.41284 11.4246 2.41722 11.3273 2.38786 11.2377L1.28017 7.83127L4.50796 8.51613C4.59541 8.53436 4.68647 8.52179 4.76571 8.48054C4.84495 8.4393 4.90748 8.37192 4.9427 8.28983L5.56801 6.81886L8.08712 9.52258C8.14472 9.58334 8.22046 9.62378 8.30299 9.63785C8.38552 9.65191 8.47039 9.63885 8.54486 9.6006C8.61934 9.56236 8.67941 9.501 8.71606 9.42573C8.75271 9.35046 8.76398 9.26534 8.74816 9.18313L7.53327 2.91811L9.48067 4.04367C9.52639 4.07047 9.57713 4.08759 9.62973 4.09398C9.68234 4.10037 9.7357 4.09589 9.78651 4.08081C9.83732 4.06574 9.88449 4.04039 9.9251 4.00635C9.96571 3.9723 9.9989 3.93028 10.0226 3.88288L11.9998 0L13.9769 3.88288C14.0007 3.93028 14.0338 3.9723 14.0745 4.00635C14.1151 4.04039 14.1622 4.06574 14.213 4.08081C14.2638 4.09589 14.3172 4.10037 14.3698 4.09398C14.4224 4.08759 14.4732 4.07047 14.5189 4.04367L16.4663 2.91811L15.2514 9.18313C15.2356 9.26534 15.2468 9.35046 15.2835 9.42573C15.3201 9.501 15.3802 9.56236 15.4547 9.6006C15.5292 9.63885 15.614 9.65191 15.6966 9.63785C15.7791 9.62378 15.8548 9.58334 15.9124 9.52258L18.4315 6.81886L19.0568 8.28983C19.0921 8.37192 19.1546 8.4393 19.2338 8.48054C19.3131 8.52179 19.4041 8.53436 19.4916 8.51613L22.7194 7.83127L21.6117 11.2377C21.5823 11.3273 21.5867 11.4246 21.624 11.5112C21.6613 11.5979 21.7289 11.6679 21.8142 11.7082L23.0767 12.2978L17.4727 16.8357C17.41 16.8867 17.3647 16.956 17.3434 17.034C17.322 17.1119 17.3256 17.1946 17.3536 17.2705L18.0444 19.1762L12.9288 18.2769C12.8454 18.2626 12.7599 18.2671 12.6785 18.2902C12.5971 18.3133 12.5219 18.3544 12.4585 18.4104C12.3951 18.4664 12.345 18.5359 12.312 18.6138C12.279 18.6917 12.2639 18.776 12.2678 18.8605L12.5358 24H11.4638Z" fill="#CC0000"/>
</g>
<defs>
<clipPath id="clip0_71_189">
<rect width="24" height="24" fill="white"/>
</clipPath>
</defs>
</svg>
