<svg width="24" height="24" viewBox="0 0 24 24" fill="none" xmlns="http://www.w3.org/2000/svg">
<g clip-path="url(#clip0_71_196)">
<path d="M8.29 20.251C15.837 20.251 19.965 13.998 19.965 8.57602C19.965 8.39802 19.965 8.22102 19.953 8.04602C20.7562 7.46455 21.4493 6.74463 22 5.92002C21.2511 6.25202 20.4566 6.46978 19.643 6.56602C20.4996 6.05308 21.1408 5.24637 21.447 4.29602C20.6417 4.7739 19.7607 5.11075 18.842 5.29202C18.2234 4.63378 17.405 4.19785 16.5136 4.05172C15.6222 3.90559 14.7075 4.05742 13.9111 4.48369C13.1147 4.90996 12.4811 5.58689 12.1083 6.40968C11.7355 7.23246 11.6444 8.1552 11.849 9.03502C10.2176 8.95326 8.6216 8.52934 7.16465 7.79079C5.70769 7.05223 4.42233 6.01554 3.392 4.74802C2.86732 5.65122 2.70659 6.72044 2.94254 7.73798C3.17848 8.75553 3.79337 9.6449 4.662 10.225C4.00926 10.2061 3.37063 10.0305 2.8 9.71302V9.76502C2.80039 10.7123 3.1284 11.6303 3.7284 12.3634C4.3284 13.0964 5.16347 13.5994 6.092 13.787C5.48781 13.9517 4.85389 13.9757 4.239 13.857C4.50116 14.6725 5.01168 15.3856 5.69913 15.8966C6.38658 16.4076 7.21657 16.691 8.073 16.707C7.22212 17.3756 6.24779 17.8699 5.20573 18.1616C4.16367 18.4533 3.07432 18.5367 2 18.407C3.8766 19.6114 6.06019 20.2501 8.29 20.247" fill="#98A2B3"/>
</g>
<defs>
<clipPath id="clip0_71_196">
<rect width="24" height="24" fill="white"/>
</clipPath>
</defs>
</svg>
